#!OML:ASF F:\VICON\USERDATA\INSTALL\rory3\rory3.ASF
:FULLY-SPECIFIED
:DEGREES
73
root 0.16876200873794495 17.66135360007455 29.20139217311657 0.1723059726496583 -4.4398029230563445 -6.307223605875999
lfemur -26.16811551374971 -6.900555696133951 -10.111193707285032
ltibia 14.444361002374137
lfoot -10.829581113100096 7.314075601644677
ltoes -2.8244280380200872
rfemur 0.3757693680706744 4.684932387019008 30.365346223799943
rtibia 26.452288646545412
rfoot -5.819342888282598 -9.346810655647271
rtoes 2.838103010928015
lowerback 8.108095035966082 2.198809934264389 7.361415120247393
upperback -0.2207031932934691 3.8842516044890925 1.6771917026975713
thorax -4.629391952410973 1.757379042435962 -3.189548214662196
lowerneck -16.357520390796427 -2.897123107674322 -1.5490610693312963
upperneck 19.361282510819354 -3.7369005457596374 1.3611726608748616
head 8.852221450193879 -1.7589128026236789 0.2852570166552407
lclavicle -4.524066985548449e-16 -7.757424357409178e-16
lhumerus -38.0120285515171 12.35990223982429 78.1203293946048
lradius 20.210084368024454
lwrist 2.9457611862987783
lhand -28.949746361417954 20.05569374409044
lfingers 7.12502
lthumb -2.4535015402395817 49.888491763200406
rclavicle -4.546105495515636e-16 -7.759455487955343e-16
rhumerus -20.70335508045722 -9.91842056012649 -81.9776487961514
rradius 30.388582527412726
rwrist -0.9645731057177995
rhand -19.116886059877036 23.661774027979828
rfingers 7.12502
rthumb 7.242705307413859 -6.036995453541249
74
root 0.26080786159392033 17.61234656971735 29.667110813609867 -0.5904963224255815 -4.337477812654497 -6.253197573236325
lfemur -26.287667925955752 -5.278993353598861 -11.294478398175709
ltibia 14.534468700690361
lfoot -9.638392840052475 5.004022382168813
ltoes -2.056616167185373
rfemur 1.4958524860035887 4.761508358342573 30.03297397723839
rtibia 27.843344207263417
rfoot -4.779763745620576 -8.804588051222007
rtoes 2.7812579969052162
lowerback 8.390870460709902 2.127798289470158 7.317788467310019
upperback -0.1722976653317057 3.809698714026198 1.644439779688831
thorax -4.720047168753012 1.7127375312258257 -3.2103553452850706
lowerneck -16.174684893499684 -2.933430399057108 -1.5511144950570963
upperneck 19.41269368786901 -3.800353685276449 1.29730071507001
head 8.837392045011025 -1.790638222113399 0.2584106916920792
lclavicle -4.517099099082228e-16 -7.752042588013781e-16
lhumerus -38.57450395468297 13.71568916537111 77.4377690615463
lradius 18.680068678104778
lwrist 0.5854219310464783
lhand -28.11417119510863 20.44691998637466
lfingers 7.12502
lthumb -1.6048408314868914 50.55463035364177
rclavicle -4.525040206843894e-16 -7.74214072190297e-16
rhumerus -20.935935519737978 -11.30245978141754 -81.59730820483325
rradius 30.12659860058315
rwrist -0.6522709659265766
rhand -19.1953304513967 23.70096558000194
rfingers 7.12502
rthumb 7.083548888450647 -5.999310156937133
75
root 0.36220458838415837 17.667900813181234 29.94248497195074 -1.6375780700680074 -4.8058297571244815 -4.746811659686711
lfemur -26.172250406246995 -4.58363517818816 -14.012553928068591
ltibia 17.48746333034726
lfoot -6.423719738769835 0.910425790737956
ltoes -3.2627797295591043
rfemur 2.085585527566602 4.960577237719785 28.21059906633019
rtibia 30.56573299272529
rfoot -2.597344194679681 -7.07222865583101
rtoes 4.198800930229277
lowerback 8.482909578630293 2.2773125825486145 5.655612354491603
upperback -0.0663265097894274 3.7600820393167442 1.1986736796973179
thorax -4.615462733081207 1.7203742033850231 -2.7950094073756215
lowerneck -16.06933540087047 -2.9887610208604256 -1.6425429277783756
upperneck 19.486495126562176 -3.8949717540528375 1.3812132346206967
head 8.837443446020998 -1.8242315430082918 0.28906683521251814
lclavicle -4.511806015028931e-16 -7.747954490413593e-16
lhumerus -38.88292625985434 14.326998038643945 77.15298301721216
lradius 17.52485001999491
lwrist -0.8852687530907968
lhand -27.719056084488027 20.37025843822493
lfingers 7.12502
lthumb -1.3365569960514287 50.10021458354738
rclavicle -4.540374706097165e-16 -7.755605519219939e-16
rhumerus -21.7261222701127 -12.945080329692585 -81.117443239714
rradius 29.77824029208653
rwrist -0.052043131490449035
rhand -18.808396812936426 23.789860075545803
rfingers 7.12502
rthumb 7.383317430463195 -6.010154390533874
76
root 0.46438621068747854 17.71782051050434 30.95892620668172 -2.3408319274048863 -4.051800305757499 -3.5430308263224015
lfemur -25.122637592002587 -4.920987130035876 -16.249347361558
ltibia 19.7175683281701
lfoot -3.5234140643014014 -2.4059467159919032
ltoes -2.319494742391273
rfemur 1.4509648713745182 3.6277578011311946 26.45492517622199
rtibia 34.99926800606714
rfoot 0.5506470898423093 -6.533318435848751
rtoes 6.155779814508421
lowerback 8.30569294791667 2.065837802553357 4.621994248898867
upperback -0.06130777482662221 3.34883536298333 0.8712471387023042
thorax -4.6116768564657855 1.5458055576989538 -2.542413495752318
lowerneck -15.989239662210768 -2.989975158041196 -1.708067731356898
upperneck 19.640267954807214 -3.9285569024126836 1.4396225750574365
head 8.864129872655962 -1.8366548635827187 0.321774201795748
lclavicle -4.511931356739282e-16 -7.748052891131695e-16
lhumerus -39.17788313973242 14.983645548472522 76.74286736481724
lradius 16.600976552939684
lwrist -2.713259271968812
lhand -26.17292808253087 22.676995837741874
lfingers 7.12502
lthumb 0.1754295476511203 52.57202227118315
rclavicle -4.574721766832869e-16 -7.782580960005849e-16
rhumerus -22.78202210801 -14.734734580157939 -80.73170295210019
rradius 29.081710157721478
rwrist 0.4543771280427249
rhand -18.803468022928257 23.782935921492417
rfingers 7.12502
rthumb 7.3732948228587425 -5.99944643952052
